<?xml version="1.0" encoding="UTF-8"?>
<svg xmlns="http://www.w3.org/2000/svg" xmlns:xlink="http://www.w3.org/1999/xlink" viewBox="0 0 48.69 41.84">
  <defs>
    <style>
      .cls-1 {
        fill: url(#linear-gradient-2);
      }

      .cls-2, .cls-3 {
        fill: #fff;
      }

      .cls-2, .cls-4, .cls-5 {
        mix-blend-mode: overlay;
      }

      .cls-6 {
        fill: url(#linear-gradient);
      }

      .cls-7 {
        isolation: isolate;
      }

      .cls-5 {
        opacity: .5;
      }
    </style>
    <linearGradient id="linear-gradient" x1="22.59" y1="-101.28" x2="19.77" y2="-128.79" gradientTransform="translate(-42.78 140.97) rotate(20.73)" gradientUnits="userSpaceOnUse">
      <stop offset=".31" stop-color="#521336"/>
      <stop offset=".81" stop-color="#240415"/>
    </linearGradient>
    <linearGradient id="linear-gradient-2" x1="12.51" y1="-128.85" x2="26.89" y2="-128.85" gradientTransform="translate(-42.78 140.97) rotate(20.73)" gradientUnits="userSpaceOnUse">
      <stop offset="0" stop-color="#ffe0ff"/>
      <stop offset=".54" stop-color="#fdf6ff"/>
      <stop offset="1" stop-color="#f0d3f0"/>
    </linearGradient>
  </defs>
  <g class="cls-7">
    <g id="Layer_2" data-name="Layer 2">
      <g id="Layer_1-2" data-name="Layer 1">
        <g>
          <g>
            <g>
              <path class="cls-6" d="M4.63,41.3c-.24,0-.45-.15-.52-.39L.57,29.1c-.05-.16-.02-.32.07-.46.09-.14.23-.22.39-.24.09-.01,9.24-1.1,19.3-5.89,2.09-.99,4.13-2.11,6.05-3.31,4.71-2.95,8.69-6.44,11.83-10.37C44.11,1.49,45.97.55,46.94.55c.39,0,.72.17.93.48.88,1.29-.6,5.29-1.07,6.48-.1.19-6.76,11.35-18.28,20.97-.02.01-.07.05-.07.05-6.23,5.22-12.78,9.06-19.47,11.43-1.34.49-2.76.93-4.21,1.31-.05.01-.09.02-.14.02Z"/>
              <path d="M46.94,1.09c1.82,0-.65,6.22-.65,6.22,0,0-6.55,11.08-18.12,20.75-.02.02-.04.04-.07.05-5.39,4.51-11.88,8.71-19.3,11.34-1.36.5-2.75.93-4.17,1.29l-3.54-11.8s9.21-1.05,19.47-5.94c2.01-.95,4.07-2.07,6.1-3.34,4.28-2.68,8.47-6.12,11.97-10.49,4.92-6.13,7.29-8.09,8.31-8.09M46.94,0c-1.22,0-3.17,1.03-9.16,8.49-3.11,3.88-7.04,7.33-11.7,10.25-1.9,1.19-3.92,2.29-5.99,3.28C10.13,26.77,1.06,27.85.97,27.86c-.32.04-.61.21-.79.48s-.23.6-.13.91l3.54,11.8c.14.47.57.78,1.04.78.09,0,.18-.01.27-.04,1.47-.38,2.91-.83,4.27-1.33,6.72-2.38,13.31-6.25,19.57-11.48.07-.05.12-.1.15-.12,11.56-9.65,18.06-20.55,18.33-21.01.03-.05.05-.1.07-.15.79-2,1.98-5.57,1.02-6.99-.31-.46-.82-.72-1.38-.72h0Z"/>
            </g>
            <path class="cls-5" d="M8.8,39.45C32.2,31.17,46.29,7.31,46.29,7.31c0,0,6.02-15.17-7.66,1.86-4.37,5.45-9.8,9.45-15.14,12.34-.99.54-1.96,1.03-2.93,1.49-2.51,7.4-7.92,13.11-11.76,16.45Z"/>
            <path class="cls-5" d="M8.8,39.45c9.56-5.15,13.99-16.07,14.69-17.94-.99.54-1.96,1.03-2.93,1.49-2.51,7.4-7.92,13.11-11.76,16.45Z"/>
            <path class="cls-2" d="M1.09,28.95l3.54,11.8c1.41-.37,2.81-.8,4.17-1.29,7.42-2.63,13.91-6.83,19.3-11.34-4.75,3.37-13.65,9.11-21.9,11.21l-3.09-9.94s13.57-2.3,23.55-9.72c-2.04,1.27-4.09,2.38-6.1,3.34C10.3,27.9,1.09,28.95,1.09,28.95Z"/>
            <ellipse class="cls-2" cx="9.35" cy="28.61" rx="3.13" ry="1.15" transform="translate(-9.41 5.07) rotate(-20.46)"/>
            <ellipse class="cls-2" cx="7.08" cy="31.18" rx="1.3" ry=".65" transform="translate(-10.45 4.44) rotate(-20.46)"/>
          </g>
          <g>
            <g>
              <path class="cls-1" d="M21.9,34.58c-.51,0-.99-.23-1.31-.64l-5.79-7.58c-.27-.35-.39-.78-.33-1.21.06-.43.28-.82.63-1.09l4.49-3.44c.29-.22.64-.34,1-.34.51,0,.99.23,1.3.64l5.79,7.59c.26.35.38.78.32,1.21-.06.44-.28.82-.63,1.08l-4.5,3.45c-.29.22-.64.34-1,.34h0ZM20.8,23.26s-.12.01-.19.07l-3.16,2.4c-.06.05-.1.12-.12.21s.01.17.06.23l1.79,2.32,2.27,2.97c.06.08.16.13.26.13.06,0,.12-.02.17-.06l3.16-2.4c.06-.05.11-.12.12-.21.01-.08-.01-.17-.06-.23l-4.05-5.31c-.06-.07-.15-.12-.25-.12Z"/>
              <path d="M20.6,20.76c.34,0,.69.15.92.45l2.72,3.57,3.07,4.01c.38.5.29,1.22-.21,1.6l-4.5,3.45c-.21.16-.45.23-.7.23-.34,0-.69-.15-.92-.45l-3.42-4.48-2.37-3.1c-.39-.51-.29-1.22.22-1.62l4.49-3.44c.21-.16.45-.23.7-.23M21.72,32.08c.17,0,.33-.05.47-.16l3.15-2.4c.35-.27.42-.78.14-1.13l-2.05-2.68-2-2.62c-.16-.2-.4-.31-.64-.31-.17,0-.35.05-.49.17l-3.15,2.4c-.35.27-.42.78-.14,1.13l1.78,2.32,2.27,2.97c.16.21.4.32.65.32M20.6,19.78c-.47,0-.91.15-1.29.43l-4.5,3.44c-.95.74-1.13,2.05-.4,3l2.37,3.09,3.42,4.48c.41.53,1.03.84,1.7.84.47,0,.92-.15,1.29-.43l4.51-3.46c.92-.7,1.1-2.03.4-2.97l-3.07-4.02-2.72-3.57c-.41-.53-1.03-.84-1.7-.84h0ZM17.9,26.01l2.87-2.19,1.89,2.48,1.94,2.55-2.86,2.18-2.17-2.83-1.68-2.18h0Z"/>
            </g>
            <path class="cls-4" d="M17.56,29.15l3.42,4.48c.39.51,1.11.6,1.62.22l4.5-3.45c.5-.38.59-1.1.21-1.6l-3.07-4.01c-.24.29-.51.6-.8.92l2.05,2.68c.27.35.21.86-.14,1.13l-3.15,2.4c-.35.27-.85.19-1.12-.16l-2.27-2.97c-.39.15-.81.27-1.24.37Z"/>
            <g class="cls-4">
              <path class="cls-3" d="M20.6,21.04c.28,0,.53.13.7.34l2.72,3.57,3.07,4.01c.29.39.22.94-.16,1.22l-4.5,3.45c-.16.12-.34.18-.54.18-.28,0-.53-.13-.7-.34l-3.42-4.48-2.37-3.1c-.3-.39-.23-.93.17-1.23l4.49-3.44c.16-.12.34-.18.54-.18M21.72,32.35c.23,0,.45-.08.64-.22l3.16-2.4c.23-.18.37-.43.41-.72.04-.29-.04-.57-.21-.79l-2.05-2.68-2-2.62c-.2-.26-.52-.42-.85-.42-.24,0-.47.08-.66.22l-3.16,2.4c-.23.18-.37.43-.41.72-.04.29.04.57.22.79l1.78,2.32,2.27,2.97c.21.27.53.43.86.43M20.6,20.76c-.24,0-.49.08-.7.23l-4.49,3.44c-.51.39-.61,1.11-.22,1.62l2.37,3.1,3.42,4.48c.23.3.57.45.92.45.24,0,.49-.08.7-.23l4.5-3.45c.5-.38.59-1.1.21-1.6l-3.07-4.01-2.72-3.57c-.23-.3-.57-.45-.92-.45h0ZM21.72,32.08c-.24,0-.49-.11-.65-.32l-2.27-2.97-1.78-2.32c-.27-.35-.21-.86.14-1.13l3.15-2.4c.15-.11.32-.17.49-.17.24,0,.48.11.64.31l2,2.62,2.05,2.68c.27.35.21.86-.14,1.13l-3.15,2.4c-.14.11-.31.16-.47.16h0Z"/>
            </g>
          </g>
        </g>
      </g>
    </g>
  </g>
</svg>