<?xml version="1.0" encoding="UTF-8"?>
<svg xmlns="http://www.w3.org/2000/svg" xmlns:xlink="http://www.w3.org/1999/xlink" viewBox="0 0 39.32 90.91">
  <defs>
          <style>
              .cls-1,
              .cls-2,
              .cls-3,
              .cls-4,
              .cls-5,
              .cls-6,
              .cls-7,
              .cls-8,
              .cls-9,
              .cls-10,
              .cls-11,
              .cls-12,
              .cls-13,
              .cls-14,
              .cls-15,
              .cls-16,
              .cls-17,
              .cls-18,
              .cls-19,
              .cls-20,
              .cls-21,
              .cls-22,
              .cls-23 {
                fill: none;
              }

              .cls-2 {
                stroke: url(#linear-gradient-27);
                stroke-width: 0.95px;
              }

              .cls-2,
              .cls-3,
              .cls-4,
              .cls-5,
              .cls-6,
              .cls-7,
              .cls-8,
              .cls-9,
              .cls-10,
              .cls-11,
              .cls-12,
              .cls-13,
              .cls-14,
              .cls-15,
              .cls-16,
              .cls-17,
              .cls-20,
              .cls-21,
              .cls-22,
              .cls-23 {
                stroke-miterlimit: 10;
              }

              .cls-3 {
                stroke: url(#linear-gradient-22);
              }

              .cls-3,
              .cls-4,
              .cls-5,
              .cls-6,
              .cls-7,
              .cls-8,
              .cls-9,
              .cls-10,
              .cls-20,
              .cls-21 {
                stroke-width: 0.74px;
                <!-- fill: red; -->
                <!-- transform: rotate(5deg); -->
                transform-origin: top right;
                <!-- transform-box: fill-box; -->
                animation: swingWave 2s ease-in-out forwards;
              }

              .cls-4 {
                stroke: url(#linear-gradient-20);
              }

              .cls-5 {
                stroke: url(#linear-gradient-11);
              }

              .cls-6 {
                stroke: url(#linear-gradient-13);
              }

              .cls-7 {
                stroke: url(#linear-gradient-26);
              }

              .cls-8 {
                stroke: url(#linear-gradient-28);
              }

              .cls-9 {
                stroke: url(#linear-gradient-19);
              }

              .cls-10 {
                stroke: url(#linear-gradient-15);
              }

              .cls-11 {
                stroke: url(#linear-gradient-10);
              }

              .cls-11,
              .cls-12,
              .cls-13,
              .cls-14,
              .cls-15,
              .cls-16,
              .cls-17,
              .cls-18,
              .cls-19,
              .cls-23 {
                stroke-width: 0.71px;
                <!-- fill: green; -->
                <!-- transform: rotate(5deg); -->
                transform-origin: top right;
                <!-- transform-box: fill-box; -->
                animation: swingWave 2s ease-in-out forwards;
              }

              .cls-12 {
                stroke: url(#linear-gradient-12);
              }

              .cls-13 {
                stroke: url(#linear-gradient-21);
              }

              .cls-14 {
                stroke: url(#linear-gradient-23);
              }

              .cls-15 {
                stroke: url(#linear-gradient-29);
              }

              .cls-16 {
                stroke: url(#linear-gradient-14);
              }

              .cls-17 {
                stroke: url(#linear-gradient-18);
              }

              .cls-24 {
                fill: url(#radial-gradient-3);
              }

              .cls-25 {
                fill: url(#radial-gradient-2);
              }

              .cls-26 {
                fill: #c4c4c4;
              }

              .cls-26,
              .cls-27 {
                mix-blend-mode: multiply;
              }

              .cls-28 {
                fill: url(#linear-gradient-3);
              }

              .cls-29 {
                fill: url(#linear-gradient-2);
              }

              .cls-18 {
                stroke: url(#linear-gradient-5);
              }

              .cls-18,
              .cls-19 {
                stroke-linecap: round;
                stroke-linejoin: round;
              }

              .cls-19 {
                stroke: url(#linear-gradient-6);
              }

              .cls-30,
              .cls-31 {
                fill: #fff;
              }

              .cls-30,
              .cls-32,
              .cls-33,
              .cls-34,
              .cls-35,
              .cls-36,
              .cls-37,
              .cls-38 {
                mix-blend-mode: overlay;
              }

              .cls-39 {
                fill: url(#radial-gradient);
              }

              .cls-40 {
                fill: url(#linear-gradient);
              }

              .cls-41 {
                isolation: isolate;
              }

              .cls-42 {
                fill: #662abf;
              }

              .cls-43 {
                clip-path: url(#clippath-1);
              }

              .cls-44 {
                fill: #3f3f42;
              }

              .cls-32 {
                fill: url(#linear-gradient-30);
              }

              .cls-33 {
                fill: url(#linear-gradient-31);
              }

              .cls-34 {
                fill: url(#linear-gradient-17);
              }

              .cls-35 {
                fill: url(#linear-gradient-16);
              }

              .cls-36 {
                fill: url(#linear-gradient-25);
              }

              .cls-37 {
                fill: url(#linear-gradient-24);
              }

              .cls-20 {
                stroke: url(#linear-gradient-8);
              }

              .cls-21 {
                stroke: url(#linear-gradient-9);
              }

              .cls-22 {
                stroke: url(#linear-gradient-4);
                stroke-width: 1.07px;
              }

              .cls-23 {
                stroke: url(#linear-gradient-7);
              }

              .cls-27 {
                fill: #cfb9f0;
              }

              .cls-45 {
                clip-path: url(#clippath);
              }

              .cls-24,
              .cls-42,
              .cls-32,
              .cls-33,
              .cls-31,
              .cls-27,
              .cls-36,
              .cls-37,
              .cls-25,
              .cls-34,
              .cls-35,
              .cls-39 {
                <!-- transform: rotate(5deg); -->
                transform-origin: top right;
                <!-- transform-box: fill-box; -->
                animation: swingWave 2s ease-in-out forwards;
              }

            @keyframes swingWave {
              0% {
                transform: rotate(0deg);
              }
              40% {
                transform: rotate(8deg);
              }
              60% {
                transform: rotate(3deg);
              }
              80% {
                transform: rotate(5deg);
              }
              100% {
                transform: rotate(0deg);
              }
            }
          </style>
    <linearGradient id="linear-gradient" x1="2" y1="25.85" x2="18.13" y2="35.28" gradientUnits="userSpaceOnUse">
      <stop offset="0" stop-color="#e2e0e1"/>
      <stop offset=".43" stop-color="#f1f1f1"/>
      <stop offset=".75" stop-color="#8b888d"/>
      <stop offset="1" stop-color="#57575b"/>
    </linearGradient>
    <linearGradient id="linear-gradient-2" x1="7.75" y1="16.58" x2="24.14" y2="26.16" xlink:href="#linear-gradient"/>
    <linearGradient id="linear-gradient-3" x1="8.1" y1="16.8" x2="25.31" y2="26.85" xlink:href="#linear-gradient"/>
    <linearGradient id="linear-gradient-4" x1="-779.79" y1="49.79" x2="-760.03" y2="49.79" gradientTransform="translate(-760.03) rotate(-180) scale(1 -1)" gradientUnits="userSpaceOnUse">
      <stop offset="0" stop-color="#333"/>
      <stop offset=".14" stop-color="#bababa"/>
      <stop offset=".31" stop-color="#6b6b6b"/>
      <stop offset=".57" stop-color="#fff"/>
      <stop offset=".77" stop-color="#333"/>
      <stop offset=".91" stop-color="#bababa"/>
      <stop offset="1" stop-color="#6b6b6b"/>
    </linearGradient>
    <linearGradient id="linear-gradient-5" x1="-763.73" y1="56.44" x2="-763.73" y2="70.75" xlink:href="#linear-gradient-4"/>
    <linearGradient id="linear-gradient-6" x1="-766.33" y1="58.14" x2="-766.33" y2="72.44" xlink:href="#linear-gradient-4"/>
    <linearGradient id="linear-gradient-7" x1="-772.38" y1="52.88" x2="-767.44" y2="52.88" xlink:href="#linear-gradient-4"/>
    <linearGradient id="linear-gradient-8" x1="-770.03" y1="54.12" x2="-770.03" y2="59.13" xlink:href="#linear-gradient-4"/>
    <linearGradient id="linear-gradient-9" x1="-770.03" y1="47.05" x2="-770.03" y2="52.07" xlink:href="#linear-gradient-4"/>
    <linearGradient id="linear-gradient-10" x1="-772.38" y1="60.61" x2="-767.44" y2="60.61" xlink:href="#linear-gradient-4"/>
    <linearGradient id="linear-gradient-11" x1="-770.03" y1="61.85" x2="-770.03" y2="66.86" xlink:href="#linear-gradient-4"/>
    <linearGradient id="linear-gradient-12" x1="-772.38" y1="68.35" x2="-767.44" y2="68.35" xlink:href="#linear-gradient-4"/>
    <linearGradient id="linear-gradient-13" x1="-770.03" y1="69.59" x2="-770.03" y2="74.6" xlink:href="#linear-gradient-4"/>
    <linearGradient id="linear-gradient-14" x1="-772.38" y1="75.71" x2="-767.44" y2="75.71" xlink:href="#linear-gradient-4"/>
    <linearGradient id="linear-gradient-15" x1="-770.03" y1="76.95" x2="-770.03" y2="81.96" xlink:href="#linear-gradient-4"/>
    <radialGradient id="radial-gradient" cx="-771.66" cy="84.06" fx="-771.66" fy="84.06" r="6.92" gradientTransform="translate(-760.03) rotate(-180) scale(1 -1)" gradientUnits="userSpaceOnUse">
      <stop offset="0" stop-color="#b88aff"/>
      <stop offset="1" stop-color="#9a57ff"/>
    </radialGradient>
    <linearGradient id="linear-gradient-16" x1="-769.76" y1="88.62" x2="-769.92" y2="86.05" gradientTransform="translate(-760.03) rotate(-180) scale(1 -1)" gradientUnits="userSpaceOnUse">
      <stop offset="0" stop-color="#fff"/>
      <stop offset="1" stop-color="#fff" stop-opacity="0"/>
    </linearGradient>
    <linearGradient id="linear-gradient-17" x1="-770.16" y1="82.35" x2="-770.08" y2="84.19" xlink:href="#linear-gradient-16"/>
    <linearGradient id="linear-gradient-18" x1="-785.5" y1="26.81" x2="-780.56" y2="26.81" xlink:href="#linear-gradient-4"/>
    <linearGradient id="linear-gradient-19" x1="-783.15" y1="28.05" x2="-783.15" y2="33.06" xlink:href="#linear-gradient-4"/>
    <linearGradient id="linear-gradient-20" x1="-783.15" y1="20.99" x2="-783.15" y2="26" xlink:href="#linear-gradient-4"/>
    <linearGradient id="linear-gradient-21" x1="-785.5" y1="34.55" x2="-780.56" y2="34.55" xlink:href="#linear-gradient-4"/>
    <linearGradient id="linear-gradient-22" x1="-783.15" y1="35.79" x2="-783.15" y2="40.8" xlink:href="#linear-gradient-4"/>
    <linearGradient id="linear-gradient-23" x1="-785.5" y1="42.28" x2="-780.56" y2="42.28" xlink:href="#linear-gradient-4"/>
    <radialGradient id="radial-gradient-2" cx="-784.78" cy="48.23" fx="-784.78" fy="48.23" r="6.92" xlink:href="#radial-gradient"/>
    <linearGradient id="linear-gradient-24" x1="-782.88" y1="52.79" x2="-783.03" y2="50.22" xlink:href="#linear-gradient-16"/>
    <linearGradient id="linear-gradient-25" x1="-783.27" y1="46.51" x2="-783.2" y2="48.36" xlink:href="#linear-gradient-16"/>
    <clipPath id="clippath">
      <path class="cls-1" d="M23,8.5s-.18,1.55.32,3.46-.64,7.96-2.73,10.28,3.55,1.36,4.09.91,3.18-3.59,3-4.91.59-7.05.55-7.96-1.64-4-2.18-4.27-5.55-.27-5.55-.27"/>
    </clipPath>
    <linearGradient id="linear-gradient-26" x1="-783.03" y1="9.12" x2="-783.03" y2="22.61" xlink:href="#linear-gradient-4"/>
    <clipPath id="clippath-1">
      <path class="cls-1" d="M17,32.43s-1,2.08-1.64,4.49-5.77,1.03-7.59-.26-1.68-5.38.86-7.11S.11,30.39.53,38.7s5.17,12.75,7.91,12.64,7.69-1.01,9.19-1.93,4.24-4.61,4.17-6.07c-.07-1.46-.26-7.05-.35-8.14s-2.96-4.64-2.96-4.64"/>
    </clipPath>
    <linearGradient id="linear-gradient-27" x1="-779.99" y1="39.77" x2="-762.36" y2="39.77" xlink:href="#linear-gradient-4"/>
    <linearGradient id="linear-gradient-28" x1="-792.18" y1="3.36" x2="-792.18" y2="8.37" xlink:href="#linear-gradient-4"/>
    <linearGradient id="linear-gradient-29" x1="-794.53" y1="9.86" x2="-789.59" y2="9.86" xlink:href="#linear-gradient-4"/>
    <radialGradient id="radial-gradient-3" cx="-793.51" cy="14.63" fx="-793.51" fy="14.63" r="6.92" xlink:href="#radial-gradient"/>
    <linearGradient id="linear-gradient-30" x1="-791.61" y1="19.19" x2="-791.77" y2="16.62" xlink:href="#linear-gradient-16"/>
    <linearGradient id="linear-gradient-31" x1="-792.01" y1="12.91" x2="-791.93" y2="14.76" xlink:href="#linear-gradient-16"/>
  </defs>
  <g class="cls-41">
    <g id="Layer_2" data-name="Layer 2">
      <g id="Layer_1-2" data-name="Layer 1">
        <g>
          <g>
            <path class="cls-40" d="M16.7,50c-5.93,0-11.12-2.12-12.99-4.12-.45-.48-.53-1.2-.23-2.12,1.25-3.94,9.54-11.69,9.9-12.02.03-.04,1.85-2.23,5.01-4.19,3.23-2.01,6.6-3.04,10.01-3.04,1.86,0,3.74.31,5.58.93,2.5.84,4.06,2.27,4.62,4.26.84,2.98-.69,7.1-4.21,11.32-3.35,3.99-7.74,7.17-11.21,8.12-2.09.57-4.27.86-6.47.86Z"/>
            <path class="cls-44" d="M28.39,25.01c1.7,0,3.52.27,5.42.9,7.01,2.34,4.88,9.16.19,14.78l-.02.02c-3.16,3.77-7.47,6.99-10.94,7.94-2.18.6-4.32.85-6.34.85-6.01,0-10.97-2.19-12.63-3.97-.34-.36-.35-.92-.12-1.62,1.23-3.86,9.76-11.81,9.76-11.81,0,0,1.81-2.19,4.93-4.13,2.5-1.56,5.84-2.96,9.75-2.96M28.39,24.01h0c-3.51,0-6.97,1.05-10.28,3.11-2.99,1.86-4.82,3.92-5.13,4.29-.75.7-8.73,8.24-9.99,12.2-.45,1.37-.06,2.18.35,2.61,1.94,2.07,7.28,4.28,13.35,4.28,2.25,0,4.48-.3,6.61-.88,3.55-.97,8.03-4.2,11.42-8.24.02-.02.03-.04.04-.05,3.63-4.35,5.2-8.64,4.3-11.78-.61-2.16-2.28-3.7-4.95-4.59-1.89-.63-3.83-.95-5.74-.95h0Z"/>
          </g>
          <path class="cls-26" d="M34,40.69l-.02.02c-3.16,3.77-7.47,6.99-10.94,7.94-8.64,2.37-16.75-.75-18.97-3.12-.34-.36-.35-.92-.12-1.62,1.23-3.86,9.76-11.81,9.76-11.81,0,0,1.81-2.19,4.93-4.13,3.59-2.24,8.9-4.15,15.17-2.06,7.01,2.34,4.88,9.16.19,14.78Z"/>
          <path class="cls-30" d="M33.98,40.71c-3.16,3.77-7.47,6.99-10.94,7.94-8.64,2.37-16.75-.75-18.97-3.12-.34-.36-.35-.92-.12-1.62,2.27,2.94,6.35,4.25,10.37,4.59,3.94.34,7.83-.23,9.97-1.08,3.55-1.4,8.09-5.28,9.69-6.71Z"/>
        </g>
        <g>
          <g>
            <g>
              <path class="cls-29" d="M10.06,48.04c-2.25,0-4.24-.58-5.73-1.67-3.6-2.62-7.78-9.73,4.7-27.92C21.13.8,34.03.5,34.57.5h0c.2,0,.39.12.46.31.08.19.03.41-.12.55C16.96,18.49,13.58,46.97,13.55,47.26c-.02.2-.17.37-.37.43-.05.01-1.36.36-3.12.36h0Z"/>
              <path class="cls-44" d="M34.57,1h0M34.57,1C16.26,18.46,13.05,47.2,13.05,47.2c0,0-1.28.34-2.99.34s-3.72-.32-5.44-1.57c-3.5-2.55-7.28-9.59,4.82-27.24C21.54,1.09,34.57,1,34.57,1M34.57,0s0,0,0,0c-.55,0-13.7.3-25.95,18.17C-4.1,36.72.29,44.06,4.03,46.78c1.58,1.15,3.67,1.76,6.03,1.76,1.82,0,3.19-.36,3.25-.38.4-.11.69-.45.74-.85.03-.28,3.39-28.56,21.19-45.56.21-.18.34-.45.34-.75,0-.55-.45-1-1-1h0ZM34.57,2h0,0Z"/>
            </g>
            <path class="cls-28" d="M34.57,1c-.3.29-.6.58-.9.88h0c-1.77,1.79-3.38,3.69-4.84,5.67-4.77,6.46-8.01,13.77-10.18,20.42-3.27,10.03-4.15,18.57-4.32,20.53-.02.28-.03.42-.03.42,0,0-6.17-.41-9.67-2.95-.18-.13-.37-.28-.55-.44-1.21-1.06-2.35-2.7-2.74-5.18-.69-4.27.86-11.04,8.11-21.62C21.53,1.09,34.57,1,34.57,1Z"/>
            <path class="cls-26" d="M33.66,1.89c-1.77,1.78-3.38,3.68-4.84,5.66-4.77,6.46-8.01,13.77-10.18,20.42-3.27,10.03-4.15,18.57-4.32,20.53-.02.28-.03.42-.03.42,0,0-6.17-.41-9.67-2.95-.18-.13-.37-.28-.55-.44-1.21-1.06-2.35-2.7-2.74-5.18,5.53,2.33,10.18-1.83,14.81-15.34C20.45,12.43,30.17,4.44,33.66,1.89Z"/>
            <path class="cls-30" d="M34.57,1c-2.13,2.03-4.04,4.24-5.75,6.55,1.31-2.17,2.86-4.69,3.2-5.04.63-.64-11.41,2.61-19.34,13.29S-.62,37.68,3.79,43.71c.05.07.1.13.16.2,2.27,2.94,6.35,4.25,10.37,4.59-.02.28-.03.42-.03.42,0,0-6.17-.41-9.67-2.95-.18-.13-.37-.28-.55-.44-3.3-2.88-6.09-10.09,5.37-26.8C21.53,1.09,34.57,1,34.57,1Z"/>
            <path class="cls-44" d="M21.1,7.97c.13.63.12,1.2.05,1.76-.14.46-.29,1.31.47,1.11.93-.19,2.67-.75,3.48-.39-1.02.76-2.25,1.08-3.51.8-.33-.06-.7-.28-.78-.61-.44-.87-.36-1.88.22-2.68.02-.03.07-.02.07.02h0Z"/>
            <path class="cls-44" d="M11.16,17.05c.37.99.27,1.9.3,2.88.44,1.94,2.52.27,3.78.04.03-.01.07.03.05.06-.39.58-.93,1.02-1.57,1.32-.64.28-1.74.39-2.12-.38-.18-.33-.25-.66-.37-.98-.48-.92-.62-1.98-.14-2.96.01-.03.07-.03.07,0h0Z"/>
            <path class="cls-44" d="M15.3,21.21c.69.6.88,1.34,1.11,2.14.18.36.65.79,1.03.56.18-.08.36-.23.56-.36.41-.27.85-.57,1.37-.82.03-.02.07.01.06.05-.26,1.05-1.84,2.6-2.78,1.43-.54-1.02-1.61-1.65-1.43-2.96,0-.03.05-.05.07-.03h0Z"/>
            <path class="cls-44" d="M4.33,28.95c.73,1.72-.57,4.71,2.39,2.61.53-.28,1.12-.74,1.75-.87-.27.63-.77,1.13-1.31,1.54-.59.37-1.3.77-2.05.47-.62-.4-.81-1.16-1.09-1.78-.14-.66-.07-1.34.23-1.96.02-.03.06-.03.07,0h0Z"/>
            <path class="cls-44" d="M8.78,32.67c.5.67.85,1.37,1.12,2.11.17.72.39,1.62,1.07,2,.57.15,1.3-.52,1.82-.81.66-.4,1.34-.81,2.09-1.15.03-.02.07.02.05.06-.67,1.08-2.93,3.21-4.21,2.23-.9-1.39-2.02-2.65-2-4.41,0-.04.05-.05.07-.02h0Z"/>
            <path class="cls-44" d="M2.41,40.66c.56.27.98.63,1.34,1.06.25.42.65,1.04,1.19.99.61-.21,1.8-1.96,2.44-2.01-.25,1.13-1.17,2.58-2.5,2.41-.6-.33-.98-.65-1.57-.95-.46-.37-.8-.86-.96-1.46,0-.03.03-.06.06-.05h0Z"/>
            <path class="cls-44" d="M7.87,42.15c.81.44,1.19,1.08,1.71,1.73.6.52,1.36.26,1.87-.3.37-.32.74-.69,1.2-1.07.03-.03.07,0,.07.03-.04,1.18-1.29,2.68-2.54,2.01-.96-.67-2.23-1-2.37-2.37,0-.03.03-.06.06-.04h0Z"/>
          </g>
          <g>
            <circle class="cls-22" cx="9.88" cy="49.79" r="9.34"/>
            <g>
              <line class="cls-18" x1="3.7" y1="56.8" x2="3.7" y2="70.39"/>
              <line class="cls-19" x1="6.29" y1="58.5" x2="6.29" y2="72.09"/>
            </g>
            <g>
              <g>
                <circle class="cls-23" cx="9.88" cy="52.88" r="2.11"/>
                <ellipse class="cls-20" cx="9.99" cy="56.62" rx=".96" ry="2.14"/>
                <ellipse class="cls-21" cx="9.99" cy="49.56" rx=".96" ry="2.14"/>
                <circle class="cls-11" cx="9.88" cy="60.61" r="2.11"/>
                <ellipse class="cls-5" cx="9.99" cy="64.36" rx=".96" ry="2.14"/>
                <circle class="cls-12" cx="9.88" cy="68.35" r="2.11"/>
                <ellipse class="cls-6" cx="9.99" cy="72.09" rx=".96" ry="2.14"/>
                <circle class="cls-16" cx="9.88" cy="75.71" r="2.11"/>
                <ellipse class="cls-10" cx="9.99" cy="79.45" rx=".96" ry="2.14"/>
              </g>
              <g>
                <g>
                  <path class="cls-39" d="M10,90.73c-.07,0-.14-.04-.17-.11-.07-.19-1.82-4.76-1.92-5.51,0-.05,0-.2.04-.24.08-.11,1.18-2.08,1.89-3.37.03-.06.09-.09.16-.09h0c.06,0,.12.04.16.09.72,1.29,1.81,3.25,1.91,3.38.08.07.04.18,0,.3-.17.87-1.83,5.24-1.9,5.43-.03.07-.09.11-.17.11h0Z"/>
                  <path class="cls-42" d="M9.99,81.59s1.8,3.23,1.92,3.41c.01.01,0,.06-.03.14-.17.88-1.9,5.41-1.9,5.41,0,0-1.81-4.73-1.91-5.47-.03-.04-.03-.07-.01-.09.13-.17,1.92-3.41,1.92-3.41M9.99,81.24c-.13,0-.25.07-.31.18-.67,1.21-1.77,3.18-1.9,3.36-.08.1-.11.25-.04.41.18.92,1.74,5.01,1.92,5.48.05.14.19.23.33.23h0c.15,0,.28-.09.33-.23.07-.19,1.74-4.57,1.91-5.47.03-.08.09-.27-.04-.43-.13-.2-1.23-2.16-1.89-3.36-.06-.11-.18-.18-.31-.18h0Z"/>
                </g>
                <path class="cls-27" d="M8.09,85.08c.1.74,1.91,5.47,1.91,5.47,0,0,1.72-4.53,1.9-5.41-.2.31-.74.83-1.9.84-.85.01-1.5-.44-1.91-.9Z"/>
                <g class="cls-38">
                  <path class="cls-31" d="M9.99,82.03c.45.8,1.48,2.66,1.71,3.04-.06.44-1.01,3.01-1.71,4.88-.71-1.87-1.65-4.44-1.71-4.88.23-.38,1.27-2.24,1.71-3.04M9.99,81.59s-1.8,3.23-1.93,3.41c-.13.18,1.93,5.55,1.93,5.55,0,0,2.05-5.37,1.92-5.55-.13-.18-1.92-3.41-1.92-3.41h0Z"/>
                </g>
                <polyline class="cls-35" points="11.18 85.29 10.06 88.55 8.68 85.23"/>
                <polyline class="cls-34" points="11.26 84.93 9.99 82.72 8.77 84.9"/>
              </g>
            </g>
          </g>
          <g>
            <g>
              <circle class="cls-17" cx="23" cy="26.81" r="2.11"/>
              <ellipse class="cls-9" cx="23.11" cy="30.56" rx=".96" ry="2.14"/>
              <ellipse class="cls-4" cx="23.11" cy="23.5" rx=".96" ry="2.14"/>
              <circle class="cls-13" cx="23" cy="34.55" r="2.11"/>
              <ellipse class="cls-3" cx="23.11" cy="38.29" rx=".96" ry="2.14"/>
              <circle class="cls-14" cx="23" cy="42.28" r="2.11"/>
            </g>
            <g>
              <g>
                <path class="cls-25" d="M23.11,54.9c-.07,0-.14-.05-.17-.11-.07-.19-1.82-4.76-1.92-5.51,0-.06,0-.2.04-.24.08-.11,1.18-2.07,1.89-3.36.03-.06.09-.09.16-.09s.12.04.16.09c.72,1.29,1.82,3.25,1.91,3.39.07.07.04.18,0,.31-.17.87-1.83,5.24-1.9,5.42-.03.07-.09.11-.17.11h0Z"/>
                <path class="cls-42" d="M23.11,45.76s1.8,3.23,1.92,3.41c.01.01,0,.06-.03.14-.17.88-1.9,5.41-1.9,5.41,0,0-1.81-4.73-1.91-5.47-.03-.04-.03-.07-.01-.09.13-.17,1.92-3.41,1.92-3.41M23.11,45.4c-.13,0-.25.07-.31.18-.67,1.21-1.77,3.18-1.9,3.36-.08.1-.11.25-.04.41.18.92,1.74,5.01,1.92,5.48.05.14.19.23.33.23h0c.15,0,.28-.09.33-.23.07-.19,1.74-4.57,1.91-5.47.03-.08.09-.27-.04-.43-.13-.2-1.23-2.16-1.89-3.36-.06-.11-.18-.18-.31-.18h0Z"/>
              </g>
              <path class="cls-27" d="M21.2,49.25c.1.74,1.91,5.47,1.91,5.47,0,0,1.72-4.53,1.9-5.41-.2.31-.74.83-1.9.84-.85.01-1.5-.44-1.91-.9Z"/>
              <g class="cls-38">
                <path class="cls-31" d="M23.11,46.2c.45.8,1.48,2.66,1.71,3.04-.06.44-1.01,3.01-1.71,4.88-.71-1.87-1.65-4.44-1.71-4.88.23-.38,1.27-2.24,1.71-3.04M23.11,45.76s-1.8,3.23-1.92,3.41c-.13.18,1.92,5.55,1.92,5.55,0,0,2.05-5.37,1.93-5.55-.13-.18-1.93-3.41-1.93-3.41h0Z"/>
              </g>
              <polyline class="cls-37" points="24.3 49.46 23.18 52.72 21.8 49.4"/>
              <polyline class="cls-36" points="24.38 49.1 23.11 46.89 21.88 49.07"/>
            </g>
          </g>
          <g class="cls-45">
            <ellipse class="cls-7" cx="23" cy="15.86" rx="2.11" ry="6.37"/>
          </g>
          <g class="cls-43">
            <circle class="cls-2" cx="11.14" cy="39.77" r="8.34"/>
          </g>
          <g>
            <ellipse class="cls-8" cx="32.14" cy="5.87" rx=".96" ry="2.14"/>
            <circle class="cls-15" cx="32.03" cy="9.86" r="2.11"/>
            <g>
              <g>
                <path class="cls-24" d="M31.85,21.3c-.07,0-.14-.05-.17-.11-.07-.19-1.82-4.76-1.92-5.51,0-.06,0-.2.04-.24.08-.11,1.18-2.07,1.89-3.36.03-.06.09-.09.16-.09h0c.06,0,.12.04.16.09.72,1.29,1.81,3.25,1.91,3.39.08.07.04.18,0,.3-.17.87-1.83,5.24-1.9,5.43-.03.07-.09.11-.17.11h0Z"/>
                <path class="cls-42" d="M31.85,12.16s1.8,3.23,1.92,3.41c.01.01,0,.06-.03.14-.17.88-1.9,5.41-1.9,5.41,0,0-1.81-4.73-1.91-5.47-.03-.04-.03-.07-.01-.09.13-.17,1.92-3.41,1.92-3.41M31.85,11.81c-.13,0-.25.07-.31.18-.67,1.21-1.77,3.18-1.9,3.37-.08.1-.11.25-.04.41.18.92,1.74,5.01,1.92,5.48.05.14.19.23.33.23h0c.15,0,.28-.09.33-.23.07-.19,1.74-4.57,1.91-5.47.03-.08.09-.27-.04-.43-.13-.2-1.23-2.16-1.89-3.36-.06-.11-.18-.18-.31-.18h0Z"/>
              </g>
              <path class="cls-27" d="M29.94,15.65c.1.74,1.91,5.47,1.91,5.47,0,0,1.72-4.53,1.9-5.41-.2.31-.74.83-1.9.84-.85.01-1.5-.44-1.91-.9Z"/>
              <g class="cls-38">
                <path class="cls-31" d="M31.84,12.6c.45.8,1.48,2.66,1.71,3.04-.06.44-1.01,3.01-1.71,4.88-.71-1.87-1.65-4.44-1.71-4.88.23-.38,1.27-2.24,1.71-3.04M31.84,12.16s-1.8,3.23-1.92,3.41c-.13.18,1.92,5.55,1.92,5.55,0,0,2.05-5.37,1.93-5.55-.13-.18-1.93-3.41-1.93-3.41h0Z"/>
              </g>
              <polyline class="cls-32" points="33.03 15.86 31.91 19.12 30.53 15.8"/>
              <polyline class="cls-33" points="33.12 15.5 31.84 13.29 30.62 15.47"/>
            </g>
          </g>
        </g>
      </g>
    </g>
  </g>
</svg>
